<svg xmlns="http://www.w3.org/2000/svg" viewBox="0 0 275.17 272.69"><defs><style>.cls-1{fill:#03183b;}</style></defs><g id="Layer_2" data-name="Layer 2"><g id="Layer_1-2" data-name="Layer 1"><path class="cls-1" d="M37.23,196.87c3.84,4.19,7.35,8.76,11.6,12.48,7.74,6.79,15.92,13.08,23.93,19.56,9.92,8,16.58,18.07,19.36,30.6.07.32.08.65.15,1.21-12.16-5.2-24.14-10.12-34.8-17.77-29-20.84-46.92-48.81-53.21-83.95-2-11.35-3-22.89-4.18-34.38A12.19,12.19,0,0,1,10,111c5.64-1.21,12,2.38,14,8.63a77.65,77.65,0,0,1,2.65,13.68C28.18,145,30,156.63,35.32,167.2a46.69,46.69,0,0,0,9.34,12.65,136.15,136.15,0,0,0,17.45,13.58c1.78,1.21,4.88,1,7.26.64,2.54-.39,2.8-1.63.95-3.68-4-4.44-8.26-8.69-12.32-13.1-3.71-4-7.4-8.06-9-13.51-1.17-4.07.47-7.29,3.23-10s6.41-3.73,10-2.06a30,30,0,0,1,8.5,5.65,222.23,222.23,0,0,0,41.89,32.45c12.41,7.59,20.49,18.59,24.37,32.64a16.32,16.32,0,0,0,.9,1.84c.4-2,.59-3.33.92-4.63,2.76-10.83,9.27-19.15,18-25.74,5.46-4.15,11.48-7.55,17.16-11.41,10.91-7.4,20.79-16,30.31-25.12,3.34-3.19,7-5.55,12-5.26,5.87.34,11,7,9,12.61a30,30,0,0,1-5,8.84c-4,4.82-8.44,9.24-12.7,13.82a17.59,17.59,0,0,0-2.82,3.13c-.62,1.12-1.15,2.75-.76,3.79.26.66,2.37,1.14,3.45.87,2.69-.67,5.66-1.27,7.81-2.86a211.43,211.43,0,0,0,17.16-14c8.39-7.69,11-18.24,13-28.89,1.55-8.31,2.53-16.73,3.79-25.09.85-5.64,3.35-10.32,8.7-12.76,8.29-3.79,18,3,17.27,12.55-1.63,21.28-4.21,42.4-12.86,62.3-14.5,33.37-38.76,56.66-72.2,70.61-2.84,1.18-5.71,2.25-8.9,3.51,2.94-11.72,8.55-21.34,17.62-28.76,5.86-4.8,12.13-9.11,17.88-14,4.58-3.94,8.64-8.48,12.93-12.76l-.4-.56c-.27.06-.62,0-.8.21-6.69,6.1-15.07,8.94-23.3,12.09-7.67,2.94-15.18,6.11-21.34,11.87-8.39,7.87-12.78,17.63-13.91,28.88-.64,6.28-3.85,9.76-9.81,11.52-16,4.72-31.89,5.26-47.74-.51-.41-.15-.81-.34-1.22-.5-4.15-1.63-6.47-4.31-6.52-9.12a41.18,41.18,0,0,0-4.34-17.83c-4.85-9.86-12.85-16.4-22.44-21.2-4.4-2.2-8.9-4.22-13.44-6.12-9.53-4-18.17-9.26-25.43-16.67a8,8,0,0,0-1-.79Z"/><path class="cls-1" d="M131.16,176.68c-13.12-2.23-25.51-5.86-36.56-13.06A70.4,70.4,0,0,1,66,127.68C54,94.41,65.66,65.66,83.55,49c-.37,3.59-.81,6.68-1,9.79-.39,7.08,0,14.1,2.81,20.74,2.37,5.53,6.38,9.21,12.41,10.45a13.73,13.73,0,0,0,2.06.43c5.12.26,8.2,2.94,9.85,7.72.41,1.21,1.8,2.08,2.75,3.1a18.54,18.54,0,0,0,.53-4.06c-.49-5.32-3.22-9.14-7.88-11.79-2.63-1.49-5-3.41-7.56-5.18,3.7-5.44,8-8.65,14.32-7,4.53,1.19,7.29-.51,9.89-4.12a79.69,79.69,0,0,1,24.53-22.59c4.36-2.54,4.18-3.16.86-7.26a16.37,16.37,0,0,0-10.07-5.89c-3.61-.63-7.25-1.14-11.25-1.76.62,2.72,1.26,4.88,1.59,7.09a8,8,0,0,1-4.93,8.2c-1.62.64-2.54.12-2.93-1.5a5.19,5.19,0,0,1-.15-1.3c.12-4.75-1.39-8.4-6.38-9.91a40.26,40.26,0,0,1-4.61-2.11c2.19-.79,3.87-1.42,5.57-2,19.1-6.58,37.68-5.27,55.49,4.21,4.3,2.29,8,5.76,11.87,8.76,1.41,1.09,2.25,2.34.12,3.72a2.55,2.55,0,0,0-1,1.77c-.39,5.17-1.06,10.39,1.25,15.34a9.93,9.93,0,0,0,1.53,2.44c3.28,3.65,5.72,3.28,7.58-.79,2.15-4.67,3.57-5,8.31-2.75,3.53,1.65,6.38,3.88,7.22,8.12.63,3.15,1.81,6.2,2.78,9.43-3.12-1.5-6-3-9.06-4.31a8.67,8.67,0,0,0-9.39,1.43c-8.09,6.46-8.66,21.18-1,28.18,3.91,3.59,6.49,3.91,11,.48,3.22-2.47,6.68-2.84,10.44-2.77,1.95,0,2.54.79,2.44,2.74-.9,17.76-7.75,33-19.8,45.85-13.22,14.13-29.94,21.3-48.81,24a18.67,18.67,0,0,1-2.3,0c3.39-6.07,4.9-12.77,12.37-15.74,9.44-3.74,17-10.31,22.7-18.78a25,25,0,0,0,2.5-4.33c1.16-2.86.31-4.42-2.67-5-4.39-.83-8.83-1.45-13.21-2.34a7.15,7.15,0,0,1-3.14-1.79c-3.52-3.2-6.71-6.79-10.45-9.7a45.48,45.48,0,0,0-9.77-5.55c-4.1-1.78-7.86-.39-10.84,2.67-3.72,3.83-5.69,8.32-3.61,13.7,1.55,4,3.17,8,5,11.89,2.4,5,3.81,10.07,2.68,15.78C132.94,163.22,132.2,169.78,131.16,176.68Z"/><path class="cls-1" d="M137,0c31.31.56,57.67,12.37,78.7,35.52,13.94,15.34,22.21,33.62,25.76,54a9.83,9.83,0,0,1-1.73,8c-4.06,5.14-11.31,4.15-13.52-2-1.73-4.87-2.62-10-4.12-15-8.06-26.76-25.19-46-50.47-57.11C131.72,5.88,82.39,20.55,58.9,62.12,53.32,72,50.14,82.57,47.36,93.38c-.68,2.67-1.45,5.26-4.19,6.7-5,2.61-11-1.06-10.93-7.14A52.14,52.14,0,0,1,34,80.73c10.15-40,35.7-65,74.89-76.61A91.57,91.57,0,0,1,137,0Z"/></g></g></svg>